# xmcd CD database file
#
# Track frame offsets:
#	150
#	8561
#	18970
#	27618
#	40246
#	52679
#	65113
#	72343
#	82101
#	89597
#	99618
#	109334
#	119286
#	133605
#
# Disc length: 1953 seconds
#
# Revision: 0
# Processed by: cddbd v1.4PL0 Copyright (c) Steve Scherf et al.
# Submitted via: CDex 1.50beta9
#
DISCID=be079f0e
DTITLE=Nat King Cole - Unforgettable
DYEAR=2002
DGENRE=Jazz
TTITLE0=I'm In The Mood For Love
TTITLE1=It's Crazy  But I'm In Love
TTITLE2=Crazy Rhythm
TTITLE3=Unforgettable
TTITLE4=Mona Lisa
TTITLE5=Autumn Leaves
TTITLE6=You Stepped Out Of A Dream
TTITLE7=It's Only A Paper Moon
TTITLE8=When You're Smiling
TTITLE9=To The Ends Of The Earth
TTITLE10=I've Grown Accustomed To Her Face
TTITLE11=Somebody Loves Me
TTITLE12=Darling, Je Vous Aime Beaucoup
TTITLE13=Route 66
EXTD=YEAR: 2002
EXTT0=
EXTT1=
EXTT2=
EXTT3=
EXTT4=
EXTT5=
EXTT6=
EXTT7=
EXTT8=
EXTT9=
EXTT10=
EXTT11=
EXTT12=
EXTT13=
PLAYORDER=
